<svg xmlns="http://www.w3.org/2000/svg" id="Layer_1" data-name="Layer 1" viewBox="0 0 96 96" preserveAspectRatio="xMidYMid meet" style="width: 200px; height: 200px; transform-origin: 50% 50%; transform: scaleX(1) scaleY(1) rotate(0deg);"><path d="M47.39,58.45A10.45,10.45,0,1,1,57.84,48,10.47,10.47,0,0,1,47.39,58.45Zm0-18.9A8.45,8.45,0,1,0,55.84,48,8.47,8.47,0,0,0,47.39,39.55Z" fill="#FFFFFF" style="fill:#FFFFFF;stroke:none" stroke="none" class=""/><path d="M47.39,94c-6.15,0-11.68-8.16-14.81-21.82a102.41,102.41,0,0,1-2.19-14.87c-.23-3-.34-6.17-.34-9.31s.11-6.27.34-9.3a102.35,102.35,0,0,1,2.19-14.88,64.62,64.62,0,0,1,3-9.7,1,1,0,0,1,1.86.75,61.44,61.44,0,0,0-2.88,9.4,101,101,0,0,0-2.15,14.58c-.22,3-.33,6-.33,9.15s.11,6.17.33,9.16a101,101,0,0,0,2.15,14.57C37.39,84.23,42.32,92,47.39,92s10-7.77,12.85-20.27a101,101,0,0,0,2.15-14.58c.22-3,.33-6.06.33-9.15s-.11-6.17-.33-9.16a101,101,0,0,0-2.15-14.57C57.38,11.77,52.46,4,47.39,4,45.6,4,43.82,5,42.1,6.84a1,1,0,0,1-1.48-1.35C42.74,3.17,45,2,47.39,2c6.14,0,11.67,8.16,14.8,21.82a102.41,102.41,0,0,1,2.19,14.87c.23,3,.34,6.17.34,9.31s-.11,6.27-.34,9.3a102.35,102.35,0,0,1-2.19,14.88C59.06,85.84,53.53,94,47.39,94Z" fill="#FFFFFF" style="fill:#FFFFFF;stroke:none" stroke="none" class=""/><path d="M16.92,75.53h-.07C12.23,75.2,9.1,73.68,7.55,71,4.48,65.67,8.77,56.8,19,47.27a.71.71,0,0,1,.09-.07,100.4,100.4,0,0,1,11.69-9.26c2.49-1.7,5.15-3.37,7.9-5s5.52-3,8.24-4.35a101,101,0,0,1,14-5.54C74.32,19,84.15,19.67,87.22,25c1.46,2.51,1.32,5.75-.4,9.6A1,1,0,1,1,85,33.79c1.45-3.24,1.62-5.86.5-7.79-2.54-4.4-11.73-4.78-24-1a99,99,0,0,0-13.69,5.44c-2.67,1.27-5.4,2.71-8.1,4.27S34.4,37.92,32,39.59a97.87,97.87,0,0,0-11.54,9.15l-.09.07C11,57.5,6.75,65.62,9.28,70c1.49,2.58,5,3.34,7.71,3.53a1,1,0,0,1-.07,2Z" fill="#FFFFFF" style="fill:#FFFFFF;stroke:none" stroke="none" class=""/><path d="M26.46,74.75a1,1,0,0,1-.18-2,65.65,65.65,0,0,0,7-1.77A98.47,98.47,0,0,0,47,65.56c2.68-1.27,5.4-2.71,8.1-4.27s5.32-3.21,7.77-4.88a99.85,99.85,0,0,0,11.55-9.14,66,66,0,0,0,5.24-5.4,1,1,0,0,1,1.52,1.3,70.09,70.09,0,0,1-5.4,5.57A101.89,101.89,0,0,1,64,58.06c-2.49,1.7-5.15,3.37-7.9,5s-5.51,3-8.23,4.35a101.65,101.65,0,0,1-14,5.54,64.42,64.42,0,0,1-7.2,1.82A.58.58,0,0,1,26.46,74.75Z" fill="#FFFFFF" style="fill:#FFFFFF;stroke:none" stroke="none" class=""/><path d="M76,75.58A41.47,41.47,0,0,1,69,74.9C60,73.3,49.23,69.08,38.72,63,16.38,50.12,2.69,33.42,7.55,25c2.41-4.17,8.88-5.56,18.23-3.9,9,1.6,19.77,5.82,30.27,11.88h0c10.51,6.07,19.54,13.27,25.44,20.28,6.1,7.27,8.14,13.57,5.73,17.74C85.48,74,81.6,75.58,76,75.58ZM18.73,22.42c-4.76,0-8.09,1.22-9.45,3.58-4.16,7.2,9.78,23.36,30.44,35.28,10.31,6,20.83,10.09,29.62,11.65,8.34,1.48,14.23.41,16.15-2.93S85.4,61,80,54.55c-5.74-6.84-14.58-13.88-24.9-19.83S34.22,24.63,25.43,23.07A38.34,38.34,0,0,0,18.73,22.42Z" fill="#FFFFFF" style="fill:#FFFFFF;stroke:none" stroke="none" class=""/><path d="M83.43,44.56a6,6,0,1,1,6-6A6,6,0,0,1,83.43,44.56Zm0-10a4,4,0,1,0,4,4A4,4,0,0,0,83.43,34.53Z" fill="#FFFFFF" style="fill:#FFFFFF;stroke:none" stroke="none" class=""/><path d="M21.72,80.18a5.8,5.8,0,1,1,5.8-5.8A5.8,5.8,0,0,1,21.72,80.18Zm0-9.6a3.8,3.8,0,1,0,3.8,3.8A3.8,3.8,0,0,0,21.72,70.58Z" fill="#FFFFFF" style="fill:#FFFFFF;stroke:none" stroke="none" class=""/><path d="M38.57,16a5.86,5.86,0,1,1,5.85-5.85A5.86,5.86,0,0,1,38.57,16Zm0-9.71a3.86,3.86,0,1,0,3.85,3.86A3.85,3.85,0,0,0,38.57,6.27Z" fill="#FFFFFF" style="fill:#FFFFFF;stroke:none" stroke="none" class=""/></svg>